<?xml version="1.0" encoding="UTF-8"?>
<!DOCTYPE svg PUBLIC "-//W3C//DTD SVG 1.1//EN" "http://www.w3.org/Graphics/SVG/1.1/DTD/svg11.dtd">
<!-- Creator: CorelDRAW X7 -->
<svg xmlns="http://www.w3.org/2000/svg" xml:space="preserve" width="2.281in" height="2in" version="1.1" style="shape-rendering:geometricPrecision; text-rendering:geometricPrecision; image-rendering:optimizeQuality; fill-rule:evenodd; clip-rule:evenodd"
viewBox="0 0 2281 2000"
 xmlns:xlink="http://www.w3.org/1999/xlink">
 <defs>
  <style type="text/css">
   <![CDATA[
    .fil1 {fill:none}
    .fil0 {fill:#FF3030}
   ]]>
  </style>
    <clipPath id="id0">
     <path d="M753 1532c363,0 710,-270 760,-621 19,-139 1,-259 85,-371 162,-214 390,-172 679,-170 0,-46 4,-77 4,-124 -322,-7 -582,-50 -788,223 -150,198 -45,355 -163,592 -267,537 -1111,416 -1196,-203 -61,-436 320,-810 782,-708 65,14 91,34 113,39 5,-19 46,-79 49,-115 -361,-191 -926,2 -1056,517 -115,451 235,941 731,941z"/>
    </clipPath>
    <clipPath id="id1">
     <path d="M762 1166c-385,0 -563,-520 -197,-742 77,-47 185,-64 274,-45 15,3 29,7 45,12 15,4 27,11 46,11 5,-18 39,-65 49,-110 -73,-39 -143,-46 -234,-46 -271,0 -505,246 -505,501 0,94 9,164 49,243 47,91 66,113 135,177 74,69 208,123 313,123 149,0 242,-28 351,-110 33,-24 42,-39 63,-60 58,-60 110,-166 126,-247 13,-59 11,-170 22,-225 20,-106 65,-202 131,-283 37,-45 83,-87 131,-120l77 -47c44,-21 106,-43 155,-53 93,-20 297,-14 406,-14 33,0 56,-1 82,-4l0 -107c-2,-25 -13,-16 -49,-16l-132 0c-16,-1 -19,-3 -34,-4l-40 0c-89,2 -226,13 -291,29 -120,29 -201,76 -290,145l-48 43c-86,87 -166,199 -202,323 -19,66 -19,81 -29,148 -14,96 -4,161 -47,261 -11,24 -59,87 -75,101 -79,71 -169,116 -282,116z"/>
    </clipPath>
    <clipPath id="id2">
     <path d="M1398 2000l128 0 0 -867 86 -4c31,0 64,-1 94,0l91 4c135,0 225,6 336,-73 22,-16 41,-30 54,-54l-637 0c-7,15 -12,31 -18,48 -12,36 -45,103 -63,134 -71,118 -71,58 -71,192l0 620z"/>
    </clipPath>
    <clipPath id="id3">
     <path d="M1579 891l682 0c8,-36 20,-83 20,-123l-698 0c0,46 -4,76 -4,123z"/>
    </clipPath>
    <clipPath id="id4">
     <path d="M1160 1487l4 513 124 0 -1 -591c-19,1 -33,18 -64,38l-63 40z"/>
    </clipPath>
 </defs>
 <g id="Layer_x0020_1">
  <metadata id="CorelCorpID_0Corel-Layer"/>
  <g id="_302757600">
   <g>
   </g>
   <g style="clip-path:url(#id0)">
    <g id="_302757792">
     <polygon class="fil0" points="-761,-901 3042,-901 3042,2901 -761,2901 "/>
    </g>
   </g>
   <path class="fil1" d="M753 1532c363,0 710,-270 760,-621 19,-139 1,-259 85,-371 162,-214 390,-172 679,-170 0,-46 4,-77 4,-124 -322,-7 -582,-50 -788,223 -150,198 -45,355 -163,592 -267,537 -1111,416 -1196,-203 -61,-436 320,-810 782,-708 65,14 91,34 113,39 5,-19 46,-79 49,-115 -361,-191 -926,2 -1056,517 -115,451 235,941 731,941z"/>
   <g>
   </g>
   <g style="clip-path:url(#id1)">
    <g>
     <polygon class="fil0" points="-761,-901 3042,-901 3042,2901 -761,2901 "/>
    </g>
   </g>
   <path class="fil1" d="M762 1166c-385,0 -563,-520 -197,-742 77,-47 185,-64 274,-45 15,3 29,7 45,12 15,4 27,11 46,11 5,-18 39,-65 49,-110 -73,-39 -143,-46 -234,-46 -271,0 -505,246 -505,501 0,94 9,164 49,243 47,91 66,113 135,177 74,69 208,123 313,123 149,0 242,-28 351,-110 33,-24 42,-39 63,-60 58,-60 110,-166 126,-247 13,-59 11,-170 22,-225 20,-106 65,-202 131,-283 37,-45 83,-87 131,-120l77 -47c44,-21 106,-43 155,-53 93,-20 297,-14 406,-14 33,0 56,-1 82,-4l0 -107c-2,-25 -13,-16 -49,-16l-132 0c-16,-1 -19,-3 -34,-4l-40 0c-89,2 -226,13 -291,29 -120,29 -201,76 -290,145l-48 43c-86,87 -166,199 -202,323 -19,66 -19,81 -29,148 -14,96 -4,161 -47,261 -11,24 -59,87 -75,101 -79,71 -169,116 -282,116z"/>
   <g>
   </g>
   <g style="clip-path:url(#id2)">
    <g>
     <polygon class="fil0" points="-761,-901 3042,-901 3042,2901 -761,2901 "/>
    </g>
   </g>
   <path class="fil1" d="M1398 2000l128 0 0 -867 86 -4c31,0 64,-1 94,0l91 4c135,0 225,6 336,-73 22,-16 41,-30 54,-54l-637 0c-7,15 -12,31 -18,48 -12,36 -45,103 -63,134 -71,118 -71,58 -71,192l0 620z"/>
   <g>
   </g>
   <g style="clip-path:url(#id3)">
    <g>
     <polygon class="fil0" points="-761,-901 3042,-901 3042,2901 -761,2901 "/>
    </g>
   </g>
   <path class="fil1" d="M1579 891l682 0c8,-36 20,-83 20,-123l-698 0c0,46 -4,76 -4,123z"/>
   <g>
   </g>
   <g style="clip-path:url(#id4)">
    <g>
     <polygon class="fil0" points="-761,-901 3042,-901 3042,2901 -761,2901 "/>
    </g>
   </g>
   <path class="fil1" d="M1160 1487l4 513 124 0 -1 -591c-19,1 -33,18 -64,38l-63 40z"/>
  </g>
 </g>
</svg>
